<?xml version="1.0" encoding="UTF-8" standalone="no"?>
<!-- Generator: Adobe Illustrator 14.0.0, SVG Export Plug-In . SVG Version: 6.00 Build 43363)  -->

<svg
   xmlns:dc="http://purl.org/dc/elements/1.1/"
   xmlns:cc="http://creativecommons.org/ns#"
   xmlns:rdf="http://www.w3.org/1999/02/22-rdf-syntax-ns#"
   xmlns:svg="http://www.w3.org/2000/svg"
   xmlns="http://www.w3.org/2000/svg"
   xmlns:sodipodi="http://sodipodi.sourceforge.net/DTD/sodipodi-0.dtd"
   xmlns:inkscape="http://www.inkscape.org/namespaces/inkscape"
   xml:space="preserve"
   height="277.63474"
   width="661.43585"
   version="1.1"
   y="0px"
   x="0px"
   viewBox="0 0 661.43586 277.63171"
   enable-background="new 0 0 666.24 275.907"
   id="svg2"
   inkscape:version="0.48.4 r9939"
   sodipodi:docname="Graduation_hat.svg"><metadata
   id="metadata32"><rdf:RDF><cc:Work
       rdf:about=""><dc:format>image/svg+xml</dc:format><dc:type
         rdf:resource="http://purl.org/dc/dcmitype/StillImage" /></cc:Work></rdf:RDF></metadata><defs
   id="defs30" /><sodipodi:namedview
   pagecolor="#ffffff"
   bordercolor="#666666"
   borderopacity="1"
   objecttolerance="10"
   gridtolerance="10"
   guidetolerance="10"
   inkscape:pageopacity="0"
   inkscape:pageshadow="2"
   inkscape:window-width="1920"
   inkscape:window-height="1138"
   id="namedview28"
   showgrid="false"
   inkscape:zoom="0.67076653"
   inkscape:cx="330.21"
   inkscape:cy="123.10322"
   inkscape:window-x="-8"
   inkscape:window-y="-8"
   inkscape:window-maximized="1"
   inkscape:current-layer="Layer_2"
   fit-margin-top="0"
   fit-margin-left="0"
   fit-margin-right="0"
   fit-margin-bottom="0"
   showguides="true"
   inkscape:guide-bbox="true"><sodipodi:guide
     orientation="0,1"
     position="500.73417,201.34785"
     id="guide3777" /></sodipodi:namedview>
<g
   id="Layer_3"
   transform="translate(-2.2812015,1.7242204)">
	<path
   d="m 176.18,215.03 c 0,0 36.925,-135.74 149.32,-136.57 112.395,-0.83 159.17,42.624 164.55,153.48 -104.22,-41.083 -187.46,15.797 -218.16,43.969 -31.64,-40.63 -33.99,-59.43 -95.71,-60.88 z"
   id="path5"
   inkscape:connector-curvature="0" />
</g>
<g
   id="Layer_2"
   transform="translate(-2.2812015,1.7242204)">
	
	<path
   d="m 552.25291,148.77873 c 0,-12.811 -18.305,-31.293 -27.322,-27.37"
   id="path10"
   inkscape:connector-curvature="0"
   style="fill:none;stroke:#000000;stroke-width:6" />
	<circle
   cy="150.34"
   cx="552.66998"
   r="5.579"
   id="circle12"
   sodipodi:cx="552.66998"
   sodipodi:cy="150.34"
   sodipodi:rx="5.579"
   sodipodi:ry="5.579"
   d="m 558.24898,150.34 c 0,3.08119 -2.4978,5.579 -5.579,5.579 -3.08119,0 -5.579,-2.49781 -5.579,-5.579 0,-3.0812 2.49781,-5.579 5.579,-5.579 3.0812,0 5.579,2.4978 5.579,5.579 z" />
	<circle
   cy="156.88"
   cx="552.78003"
   r="8.0950003"
   id="circle14"
   sodipodi:cx="552.78003"
   sodipodi:cy="156.88"
   sodipodi:rx="8.0950003"
   sodipodi:ry="8.0950003"
   d="m 560.87503,156.88 c 0,4.47075 -3.62426,8.09501 -8.095,8.09501 -4.47075,0 -8.095,-3.62426 -8.095,-8.09501 0,-4.47074 3.62425,-8.095 8.095,-8.095 4.47074,0 8.095,3.62426 8.095,8.095 z" />
	<circle
   cy="164.00999"
   cx="552.78003"
   r="8.0950003"
   id="circle16"
   sodipodi:cx="552.78003"
   sodipodi:cy="164.00999"
   sodipodi:rx="8.0950003"
   sodipodi:ry="8.0950003"
   d="m 560.87503,164.00999 c 0,4.47075 -3.62426,8.095 -8.095,8.095 -4.47075,0 -8.095,-3.62425 -8.095,-8.095 0,-4.47074 3.62425,-8.095 8.095,-8.095 4.47074,0 8.095,3.62426 8.095,8.095 z" />
	<path
   d="m 571.77,197.29 c -0.737,-1.001 -1.598,-1.822 -1.805,-2.672 -1.618,-6.629 -6.54,-26.801 -13.305,-28.636 -0.915,-0.248 -1.477,-1.281 -1.256,-2.308 0.221,-1.027 1.144,-1.654 2.057,-1.409 7.684,2.083 12.294,17.014 15.79,31.343 0.249,1.019 -0.028,2.269 -0.397,3.485 -0.05,0.167 -0.296,1.196 -0.444,1.196 l -0.64,-0.99 z"
   id="path18"
   inkscape:connector-curvature="0" />
	<path
   d="m 567.52,200.05 c -0.737,-1.001 -1.598,-1.822 -1.805,-2.672 -1.618,-6.629 -6.54,-26.801 -13.305,-28.636 -0.915,-0.248 -1.477,-1.281 -1.256,-2.308 0.221,-1.027 1.144,-1.654 2.057,-1.409 7.684,2.083 12.294,17.014 15.79,31.343 0.249,1.019 -0.028,2.269 -0.397,3.485 -0.05,0.167 -0.296,1.196 -0.444,1.196 l -0.65,-0.99 z"
   id="path20"
   inkscape:connector-curvature="0" />
	<path
   d="m 557.14,201.4 c 0.15,-1.233 0.497,-2.371 0.262,-3.214 -1.845,-6.57 -7.456,-26.561 -2.462,-31.479 0.674,-0.666 0.656,-1.841 -0.038,-2.628 -0.697,-0.785 -1.809,-0.88 -2.485,-0.218 -5.672,5.587 -2.36,20.856 1.626,35.059 0.283,1.009 1.139,1.962 2.056,2.841 0.127,0.121 0.845,0.897 0.975,0.824 l 0.06,-1.18 z"
   id="path22"
   inkscape:connector-curvature="0" />
	<path
   d="m 550.8,200.9 c 0.15,-1.233 0.497,-2.371 0.262,-3.214 -1.845,-6.57 -7.456,-26.561 -2.462,-31.479 0.674,-0.666 0.656,-1.841 -0.038,-2.628 -0.697,-0.785 -1.809,-0.88 -2.485,-0.218 -5.672,5.587 -2.36,20.856 1.626,35.059 0.283,1.009 1.139,1.962 2.056,2.841 0.127,0.121 0.845,0.897 0.975,0.824 l 0.06,-1.18 z"
   id="path24"
   inkscape:connector-curvature="0" />
	<path
   d="m 563.44,199.58 c 0.205,-1.528 0.678,-2.938 0.356,-3.982 -2.516,-8.141 -10.169,-32.91 -3.357,-39.004 0.919,-0.825 0.896,-2.28 -0.052,-3.256 -0.951,-0.973 -2.467,-1.09 -3.39,-0.27 -7.736,6.922 -3.22,25.842 2.218,43.439 0.386,1.25 1.553,2.431 2.804,3.52 0.173,0.15 1.151,1.112 1.329,1.021 l 0.09,-1.47 z"
   id="path26"
   inkscape:connector-curvature="0" />
<path
   d="m 653.29544,67.652367 c 9.26518,1.97245 13.27491,10.792406 -0.63485,15.650177 -65.08833,22.731116 -331.54133,100.306626 -331.54133,100.306626 -6.27045,1.89681 -15.26066,2.53813 -25.11793,-0.0996 0,0 -277.938313,-79.93441 -288.3232333,-85.15322 C 3.4289338,96.22099 2.5046615,88.723329 8.6653101,86.491918 15.574413,83.989414 303.77396,5.1688568 311.89112,2.595646 c 9.801,-3.10699996 16.33097,-2.89321912 26.65892,-0.7855928 0,0 248.69719,51.7814098 314.7454,65.8423138 z"
   id="path8"
   style="stroke:#ffffff;stroke-width:4;stroke-miterlimit:4;stroke-opacity:1;stroke-dasharray:none"
   inkscape:connector-curvature="0"
   sodipodi:nodetypes="sssssssss" /></g>
</svg>