<?xml version="1.0" encoding="UTF-8" standalone="no"?>
<!-- Created with Inkscape (http://www.inkscape.org/) -->

<svg
   xmlns:dc="http://purl.org/dc/elements/1.1/"
   xmlns:cc="http://creativecommons.org/ns#"
   xmlns:rdf="http://www.w3.org/1999/02/22-rdf-syntax-ns#"
   xmlns:svg="http://www.w3.org/2000/svg"
   xmlns="http://www.w3.org/2000/svg"
   version="1.1"
   width="93.797501"
   height="84.309998"
   id="svg9367">
  <defs
     id="defs9369">
    <clipPath
       id="clipPath8002">
      <path
         d="m 508.962,734 77.038,0 0,-69.448 -77.038,0 0,69.448 z"
         id="path8004" />
    </clipPath>
  </defs>
  <metadata
     id="metadata9372">
    <rdf:RDF>
      <cc:Work
         rdf:about="">
        <dc:format>image/svg+xml</dc:format>
        <dc:type
           rdf:resource="http://purl.org/dc/dcmitype/StillImage" />
        <dc:title></dc:title>
      </cc:Work>
    </rdf:RDF>
  </metadata>
  <g
     transform="translate(92.61304,-130.2072)"
     id="layer1">
    <g
       transform="matrix(1.25,0,0,-1.25,-730.06554,1046.4572)"
       id="g7998">
      <g
         id="g8000" />
      <g
         id="g8006">
        <g
           clip-path="url(#clipPath8002)"
           id="g8008"
           style="opacity:0.5">
          <path
             d="m 585,666.852 -75.038,0 0,53.915 75.038,0 0,-53.915 z"
             id="path8010"
             style="fill:#838906;fill-opacity:1;fill-rule:nonzero;stroke:none" />
          <path
             d="m 527.75,707.705 -12.229,0 0,8.896 12.229,0 0,-8.896 z"
             id="path8012"
             style="fill:#ffffff;fill-opacity:1;fill-rule:nonzero;stroke:none" />
          <path
             d="m 527.75,693.949 -12.229,0 0,8.895 12.229,0 0,-8.895 z"
             id="path8014"
             style="fill:#ffffff;fill-opacity:1;fill-rule:nonzero;stroke:none" />
          <path
             d="m 527.75,680.192 -12.229,0 0,8.895 12.229,0 0,-8.895 z"
             id="path8016"
             style="fill:#ffffff;fill-opacity:1;fill-rule:nonzero;stroke:none" />
          <path
             d="m 544.147,707.705 -12.228,0 0,8.896 12.228,0 0,-8.896 z"
             id="path8018"
             style="fill:#ffffff;fill-opacity:1;fill-rule:nonzero;stroke:none" />
          <path
             d="m 544.147,693.949 -12.228,0 0,8.895 12.228,0 0,-8.895 z"
             id="path8020"
             style="fill:#ffffff;fill-opacity:1;fill-rule:nonzero;stroke:none" />
          <path
             d="m 544.147,680.192 -12.228,0 0,8.895 12.228,0 0,-8.895 z"
             id="path8022"
             style="fill:#ffffff;fill-opacity:1;fill-rule:nonzero;stroke:none" />
          <path
             d="m 561.101,707.705 -12.228,0 0,8.896 12.228,0 0,-8.896 z"
             id="path8024"
             style="fill:#ffffff;fill-opacity:1;fill-rule:nonzero;stroke:none" />
          <path
             d="m 561.101,693.949 -12.228,0 0,8.895 12.228,0 0,-8.895 z"
             id="path8026"
             style="fill:#ffffff;fill-opacity:1;fill-rule:nonzero;stroke:none" />
          <path
             d="m 561.101,680.192 -12.228,0 0,8.895 12.228,0 0,-8.895 z"
             id="path8028"
             style="fill:#ffffff;fill-opacity:1;fill-rule:nonzero;stroke:none" />
          <path
             d="m 578.887,707.705 -12.229,0 0,8.896 12.229,0 0,-8.896 z"
             id="path8030"
             style="fill:#ffffff;fill-opacity:1;fill-rule:nonzero;stroke:none" />
          <path
             d="m 578.887,693.949 -12.229,0 0,8.895 12.229,0 0,-8.895 z"
             id="path8032"
             style="fill:#ffffff;fill-opacity:1;fill-rule:nonzero;stroke:none" />
          <path
             d="m 578.887,680.192 -12.229,0 0,8.895 12.229,0 0,-8.895 z"
             id="path8034"
             style="fill:#ffffff;fill-opacity:1;fill-rule:nonzero;stroke:none" />
          <path
             d="m 560.544,665.552 -26.681,0 0,9.917 26.681,0 0,-9.917 z"
             id="path8036"
             style="fill:#ffffff;fill-opacity:1;fill-rule:nonzero;stroke:none" />
          <path
             d="m 563.879,718.827 -33.072,0 0,14.173 33.072,0 0,-14.173 z"
             id="path8038"
             style="fill:#838906;fill-opacity:1;fill-rule:nonzero;stroke:none" />
          <path
             d="m 545.757,721.951 2.682,0 0,9.388 -2.682,0 0,-9.388 z"
             id="path8040"
             style="fill:#ffffff;fill-opacity:1;fill-rule:nonzero;stroke:none" />
          <path
             d="m 551.792,727.986 -9.388,0 0,-2.682 9.388,0 0,2.682 z"
             id="path8042"
             style="fill:#ffffff;fill-opacity:1;fill-rule:nonzero;stroke:none" />
        </g>
      </g>
    </g>
  </g>
</svg>
