<?xml version="1.0" encoding="utf-8"?>
<!-- Generator: Adobe Illustrator 12.0.1, SVG Export Plug-In  -->
<!DOCTYPE svg PUBLIC "-//W3C//DTD SVG 1.1//EN" "http://www.w3.org/Graphics/SVG/1.1/DTD/svg11.dtd" [
	<!ENTITY ns_flows "http://ns.adobe.com/Flows/1.0/">
	<!ENTITY ns_svg "http://www.w3.org/2000/svg">
	<!ENTITY ns_xlink "http://www.w3.org/1999/xlink">
]>
<svg  version="1.1" xmlns="&ns_svg;" xmlns:xlink="&ns_xlink;" xmlns:a="http://ns.adobe.com/AdobeSVGViewerExtensions/3.0/"
	 width="486" height="445" viewBox="0 -0.433 486 445" enable-background="new 0 -0.433 486 445" xml:space="preserve">
<defs>
</defs>
<g>
	<path fill="#C1D4D3" d="M117.306,396.542c-2.095,2.143-13.108,14.923-13.47,45.645c2.897,0,71.803,0,74.525,0
		c0.804-24.236,7.699-33.7,7.998-34.098l0.45-0.596h120.407l0.449,0.627c0.297,0.415,7.136,10.287,8.056,34.066
		c2.712,0,73.803,0,76.715,0c-0.421-29.697-12.859-43.413-15.113-45.645C376.124,396.542,118.525,396.542,117.306,396.542z"/>
	<path fill="#7A8584" d="M377.926,395.042H116.691c0,0-14.392,12.443-14.392,48.646h77.504c0.556-25.161,7.754-34.694,7.754-34.694
		h118.889c0,0,7.163,10.003,7.841,34.694h79.691C393.979,408.888,377.926,395.042,377.926,395.042L377.926,395.042z
		 M117.945,398.042h258.754c1.281,1.351,4.031,4.588,6.756,9.979c2.18,4.314,3.918,9.146,5.165,14.361
		c1.357,5.674,2.135,11.818,2.317,18.305h-73.764c-1.153-23.219-7.987-33.02-8.289-33.441l-0.896-1.253h-1.542H187.557h-1.494
		l-0.9,1.192c-0.306,0.404-7.22,9.828-8.262,33.502h-71.567c0.158-6.772,0.853-13.114,2.071-18.889
		c1.113-5.273,2.663-10.087,4.606-14.308C114.387,402.331,116.783,399.327,117.945,398.042L117.945,398.042z"/>
</g>
<g>
	<path fill="#B1C2C1" d="M190.152,341.151c0,2.808,0,63.275,0,66.083c2.886,0,111.17,0,114.056,0c0-2.808,0-63.275,0-66.083
		C301.322,341.151,193.038,341.151,190.152,341.151z"/>
	<path fill="#75807E" d="M305.708,339.651H188.652v69.083h117.056v-3l0,0l0,0V339.651L305.708,339.651z M191.652,342.651h111.056
		v63.083H191.652V342.651L191.652,342.651z"/>
</g>
<g>
	<path fill="#CCE0DF" d="M34.578,1.5c-0.29,0.012-13.504,0.657-22.963,10.115C1.666,21.563,1.5,32.516,1.5,32.625v298.391
		c0,0.106,0.166,11.06,10.115,21.008c9.516,9.516,22.846,10.11,22.979,10.115c1.153,0.117,106.333,11.034,213.43,11.034
		c107.084,0,201.438-10.915,202.378-11.025l0.06-0.007l0.062-0.002c0.134-0.005,13.464-0.6,22.979-10.115
		c9.949-9.948,10.114-20.901,10.115-21.012V32.622c-0.001-0.106-0.166-11.058-10.115-21.007
		C463.987,2.1,450.657,1.504,450.523,1.499C450.523,1.499,34.651,1.5,34.578,1.5z"/>
	<path fill="#7E8A89" d="M450.577,0.001H34.541c0,0-13.913,0.48-23.987,10.554C0.103,21.006,0.001,32.397,0,32.619
		c0,0,0,0.001,0,0.001c0,0,0,0.001,0,0.001c0,0.001,0,0.001,0,0.001v298.395c0,0,0,11.514,10.554,22.067
		c10.074,10.074,23.987,10.555,23.987,10.555s105.062,11.035,213.483,11.035c108.42,0,202.553-11.035,202.553-11.035
		s13.912-0.48,23.985-10.555c10.473-10.471,10.555-21.888,10.556-22.065v-0.001c0,0,0,0,0-0.001l0,0l0,0V32.622
		c0,0,0-11.513-10.556-22.067C464.489,0.481,450.577,0.001,450.577,0.001L450.577,0.001z M34.602,3.001h415.907
		c0.395,0.021,3.524,0.219,7.615,1.43c3.935,1.164,9.613,3.541,14.318,8.245c3.966,3.966,6.798,8.519,8.419,13.532
		c1.218,3.768,1.257,6.402,1.257,6.428v-0.014v298.38c0,0.026-0.039,2.66-1.257,6.429c-1.621,5.014-4.453,9.566-8.419,13.533
		c-4.705,4.703-10.384,7.08-14.318,8.244c-4.358,1.29-7.625,1.432-7.657,1.433l-0.117,0.005l-0.122,0.013
		c-0.234,0.028-23.923,2.786-60.531,5.509c-33.776,2.513-85.773,5.507-141.672,5.507c-55.911,0-110.887-2.995-147.163-5.509
		c-39.317-2.724-65.745-5.482-66.008-5.511l-0.098-0.01l-0.105-0.004c-0.032-0.001-3.3-0.143-7.657-1.433
		c-3.936-1.164-9.614-3.541-14.319-8.244c-3.965-3.967-6.797-8.52-8.418-13.533C3.039,333.663,3,331.029,3,331.002V32.622v0.014
		c0-0.026,0.039-2.66,1.257-6.428c1.621-5.014,4.453-9.566,8.418-13.532C21.542,3.809,33.781,3.042,34.602,3.001L34.602,3.001z"/>
</g>
<rect x="46.055" y="45.095" width="394.342" height="273.449"/>
<g>
	<path fill="#B2B2B2" d="M250.295,82.633l-0.51,0.019l-0.483-0.019l-0.722-0.02c-24.013,0-52.054,13.968-52.054,53.333
		l-0.004,12.693c-0.002,1.654-0.007,2.71-0.058,3.428c0,15.749,0,36.429,0,38.431c2.342,0,14.107,0,16.447,0
		c0.002-2.816,0.04-48.016,0.04-48.016c0-29.186,11.654-43.374,35.629-43.374l1.069,0.022l0.193,0.006
		c0.105-0.006,1.174-0.028,1.174-0.028c23.975,0,35.629,14.188,35.629,43.374c0,0,0.036,45.2,0.039,48.016c2.34,0,14.105,0,16.447,0
		c0-1.993,0-22.478,0-38.255c-0.037-0.301-0.051-0.603-0.052-0.87l-0.005-2.732l-0.005-12.695c0-39.366-28.041-53.333-52.054-53.333
		L250.295,82.633z"/>
	<path fill="#757575" d="M251.016,81.114c-0.407,0-0.811,0.026-1.219,0.037c-0.406-0.011-0.809-0.037-1.217-0.037
		c-28.794,0-53.554,18.278-53.554,54.834c0,12.185-0.007,16.248-0.017,16.248c-0.018,0-0.044-15.621-0.045-16.229v19.229l0,0V192
		h19.446c0,0,0-0.001,0-0.002c0,0,0-0.001,0-0.001c0-0.001,0-0.001,0-0.002c0-0.002,0-0.006,0-0.01c0-0.001,0-0.003,0-0.004
		c0.001-0.74,0.04-21.714,0.041-48.207c0-0.053,0-0.107,0-0.161c0-0.053,0-0.107,0-0.161s0-0.107,0-0.161s0-0.107,0-0.161
		s0-0.107,0-0.161s0-0.107,0-0.161c0-0.054,0-0.108,0-0.162s0-0.108,0-0.162c0-33.344,15.124-41.874,34.129-41.874
		c0.409,0,0.813,0.016,1.217,0.028c0.406-0.012,0.811-0.028,1.219-0.028c19.004,0,34.129,8.53,34.129,41.874
		c0,27.583,0.04,49.516,0.04,49.516h19.446v-56.052c0,0,0,0,0,0c0,0,0,0.001,0,0.002c0,0,0,0.001,0,0.002c0,0,0,0.001,0,0.002
		c0,0,0,0.001,0,0.002s0,0.001,0,0.002c0,0.003,0,0.007,0,0.011c0,0.001,0,0.002,0,0.004c0,0.004,0,0.009,0,0.015
		c0,0.002,0,0.004,0,0.006c-0.002,0.953-0.028,16.201-0.046,16.201c-0.009,0-0.015-4.061-0.015-16.248
		C304.57,99.392,279.809,81.114,251.016,81.114L251.016,81.114z M249.797,84.152l0.081-0.002c0.163-0.004,0.326-0.011,0.489-0.018
		c0.231-0.009,0.452-0.018,0.648-0.018c6.927,0,13.487,1.094,19.502,3.251c6.13,2.198,11.521,5.445,16.025,9.65
		c4.723,4.409,8.399,9.815,10.927,16.068c2.722,6.729,4.101,14.422,4.101,22.865c0,6.095,0.002,10.158,0.004,12.697
		c0.001,1.273,0.003,2.163,0.005,2.736c0.001,0.291,0.002,0.502,0.003,0.64c0,0.079,0.001,0.137,0.002,0.176
		c0.003,0.177,0.02,0.347,0.047,0.51V189h-13.45c-0.011-6.928-0.036-25.107-0.036-46.516c0-8.33-0.94-15.565-2.797-21.504
		c-1.782-5.708-4.473-10.429-7.995-14.034c-6.139-6.282-14.754-9.336-26.337-9.336c-0.374,0-0.727,0.011-1.068,0.022l-0.149,0.004
		l-0.146-0.004c-0.343-0.011-0.696-0.022-1.071-0.022c-11.583,0-20.198,3.054-26.337,9.336c-3.522,3.605-6.212,8.326-7.995,14.034
		c-1.856,5.939-2.797,13.174-2.797,21.504c0,21.41-0.025,39.59-0.036,46.516h-13.451v-36.3c0.027-0.16,0.043-0.326,0.046-0.499
		c0.001-0.039,0.002-0.098,0.002-0.179c0.002-0.138,0.003-0.349,0.004-0.641c0.002-0.573,0.004-1.464,0.005-2.737
		c0.003-2.669,0.005-6.941,0.005-12.697c0-8.443,1.379-16.136,4.1-22.865c2.528-6.253,6.204-11.659,10.926-16.068
		c4.505-4.205,9.897-7.452,16.026-9.65c6.014-2.157,12.576-3.251,19.502-3.251c0.198,0,0.417,0.009,0.65,0.018
		c0.161,0.007,0.323,0.014,0.485,0.018L249.797,84.152L249.797,84.152z"/>
</g>
<linearGradient id="XMLID_1_" gradientUnits="userSpaceOnUse" x1="188.8721" y1="230.9927" x2="309.5059" y2="230.9927">
	<stop  offset="0" style="stop-color:#D9BE6F"/>
	<stop  offset="1" style="stop-color:#C29611"/>
</linearGradient>
<rect x="188.872" y="176.159" fill="url(#XMLID_1_)" stroke="#96793E" stroke-width="3" width="120.634" height="109.668"/>
<path opacity="0.5" fill="#FFFFFF" d="M439.991,45.095c0.099-0.043,0.186-0.091,0.237-0.146
	c11.588-12.551,22.222-24.763,31.959-36.537C462.438,0.416,450.577,0,450.577,0H34.541c0,0-13.912,0.48-23.987,10.554
	C0,21.108,0,32.622,0,32.622v298.395c0,0,0.002,3.615,1.858,8.65c14.36-6.033,30.512-14.904,44.197-21.122V45.095H439.991z"/>
<path opacity="0.2" fill="#FFFFFF" d="M46.913,309.587c171.813-98.701,273.56-177.905,382.009-263.811
	c0.91-0.977,9.346,0.069,11.069-0.681H46.055v273.449C46.99,318.12,45.981,310.013,46.913,309.587z"/>
</svg>
